<?xml version="1.0" encoding="UTF-8"?>
<!-- Generated by jsxcad -->
<!DOCTYPE svg PUBLIC "-//W3C//DTD SVG 1.1 Tiny//EN" "http://www.w3.org/Graphics/SVG/1.1/DTD/svg11-tiny.dtd">
<svg viewBox="-250 -250 500 500" width="500" height="500" xmlns="http://www.w3.org/2000/svg"><path d="M-142.13912531545475,-2.2436029882580035L-153.6268195581413,81.71819465247445L-129.12179246161614,-22.76113349333622zM-93.91789710366832,-59.94825183868468L-112.0442653226919,129.41949483130793L-72.66265802427765,-75.89959240127641zM-129.12179246161614,-22.76113349333622L-130.80364925446565,116.35949945593167L-112.89387459772543,-42.12337156144234zM-112.89387459772543,-42.12337156144234L-112.0442653226919,129.41949483130793L-93.91789710366832,-59.94825183868468zM-151.49621206618906,18.992983696959392L-153.6268195581413,81.71819465247445L-142.13912531545475,-2.2436029882580035zM-157.58049448720197,61.56834987217287L-151.49621206618906,18.992983696959392L-156.76921916754227,40.45117444831154zM-72.66265802427765,-75.89959240127641L-61.76898941195384,143.7051578185645L-49.60184196308917,-89.67897816916641zM-49.60184196308917,-89.67897816916641L-31.786982557013378,143.9381051493662L-25.21644729830352,-101.01891006861737zM-25.21644729830352,-101.01891006861737L-31.786982557013378,143.9381051493662L-8.306064021332334e-14,-109.6779533927698zM-151.49621206618906,18.992983696959392L-157.58049448720197,61.56834987217287L-153.6268195581413,81.71819465247445zM-8.306064021332334e-14,-109.6779533927698L32.294354987792815,129.61101327482518L25.534695181854374,-115.4386574499026zM-129.12179246161614,-22.76113349333622L-153.6268195581413,81.71819465247445L-144.7151349251076,100.22017562429804zM25.534695181854374,-115.4386574499026L32.294354987792815,129.61101327482518L50.84844038713177,-118.10871581764178zM50.84844038713177,-118.10871581764178L92.89816285104357,97.27380127063651L75.36946872665574,-117.52591327381748zM-129.12179246161614,-22.76113349333622L-144.7151349251076,100.22017562429804L-130.80364925446565,116.35949945593167zM75.36946872665574,-117.52591327381748L92.89816285104357,97.27380127063651L98.48973148995587,-113.56732831119018zM98.48973148995587,-113.56732831119018L139.84465910341223,52.41247012992012L119.56543177523754,-106.16295734756521zM-112.89387459772543,-42.12337156144234L-130.80364925446565,116.35949945593167L-112.0442653226919,129.41949483130793zM119.56543177523754,-106.16295734756521L155.8634550600935,27.704890582806563L137.9239775802137,-95.31368883614425zM-72.66265802427765,-75.89959240127641L-112.0442653226919,129.41949483130793L-88.81995977232313,138.72652309419288zM137.9239775802137,-95.31368883614425L155.8634550600935,27.704890582806563L152.87935650607483,-81.11284082122889zM152.87935650607483,-81.11284082122889L170.89027786681734,-21.202809683320485L163.75805100556673,-63.76963866724274zM-72.66265802427765,-75.89959240127641L-88.81995977232313,138.72652309419288L-61.76898941195384,143.7051578185645zM-49.60184196308917,-89.67897816916641L-61.76898941195384,143.7051578185645L-31.786982557013378,143.9381051493662zM163.75805100556673,-63.76963866724274L170.89027786681734,-21.202809683320485L169.93658412097147,-43.63173941648777zM152.87935650607483,-81.11284082122889L166.2503475345958,2.850117028914335L170.89027786681734,-21.202809683320485zM-8.306064021332334e-14,-109.6779533927698L-31.786982557013378,143.9381051493662L-3.1637052275085204e-13,139.22233158266627zM-8.306064021332334e-14,-109.6779533927698L-3.1637052275085204e-13,139.22233158266627L32.294354987792815,129.61101327482518zM119.56543177523754,-106.16295734756521L139.84465910341223,52.41247012992012L155.8634550600935,27.704890582806563zM152.87935650607483,-81.11284082122889L155.8634550600935,27.704890582806563L166.2503475345958,2.850117028914335zM98.48973148995587,-113.56732831119018L118.61286197757309,75.94681417657677L139.84465910341223,52.41247012992012zM50.84844038713177,-118.10871581764178L63.7141595192694,115.43161245360754L92.89816285104357,97.27380127063651zM50.84844038713177,-118.10871581764178L32.294354987792815,129.61101327482518L63.7141595192694,115.43161245360754zM98.48973148995587,-113.56732831119018L92.89816285104357,97.27380127063651L118.61286197757309,75.94681417657677z" style="fill:rgb(83,212,212)"/></svg>
